# Blender v2.93.1 OBJ File: ''
# www.blender.org
mtllib SimpleBush6obj.mtl
o Plane.001_Plane.005
v 1.366562 0.023623 -0.059421
v -1.136455 0.027485 -0.510757
v 1.278728 1.695047 0.441990
v -1.224289 1.698910 -0.009346
v 0.048638 -0.091674 0.094051
v -0.039196 1.579750 0.595462
v -0.517303 0.380162 -0.360233
v 0.731513 1.834641 -0.119195
v 0.819346 0.163217 -0.620606
v -0.605137 2.051587 0.141178
v -1.098246 -0.034646 0.212319
v 1.441096 0.004691 0.215962
v -1.080496 1.754019 -0.683270
v 1.458845 1.793357 -0.679626
v 0.161360 -0.069634 -0.152308
v 0.179110 1.719032 -1.047897
v 0.811472 0.361618 0.096429
v -0.433759 1.828487 -0.249016
v -0.451508 0.039821 0.646572
v 0.829221 2.150283 -0.799159
v 0.526628 0.018996 -0.659365
v -0.694632 -0.095136 0.528073
v 0.921551 1.196368 -0.448860
v -0.299709 1.082237 0.738577
v 0.113219 -0.109787 0.124067
v 0.508142 1.067586 0.334572
v -0.342891 0.180714 0.241994
v 0.383013 1.252644 -0.376346
v -0.011910 0.075271 -0.586851
v 0.052032 1.358087 0.452499
v -0.244296 -0.112755 0.796264
v 0.721170 0.018020 -0.590090
v -0.651788 1.104003 0.390692
v 0.313678 1.234778 -0.995662
v 0.007403 -0.098064 -0.036004
v -0.400089 1.118695 -0.441576
v 0.436446 0.237050 -0.301654
v -0.137213 1.196648 0.208585
v 0.270279 -0.020111 0.614157
v 0.028954 1.453809 -0.707226
v 1.084683 0.027755 -0.003155
v -0.883552 0.030876 -0.358339
v 0.984142 1.940991 0.570797
v -0.984093 1.944112 0.215613
v 0.046906 -0.065398 0.125576
v -0.053635 1.847838 0.699527
v -0.402743 0.428384 -0.205323
v 0.555538 2.053774 0.119760
v 0.656079 0.140538 -0.454191
v -0.503284 2.341620 0.368629
v -0.858606 0.027755 0.239381
v 1.141364 0.030876 0.224412
v -0.865952 1.940991 -0.343264
v 1.134018 1.944112 -0.358233
v 0.137458 -0.065398 -0.079065
v 0.130112 1.847838 -0.661710
v 0.640549 0.428384 0.162962
v -0.361324 2.053774 0.020721
v -0.353978 0.140538 0.603366
v 0.633203 2.341620 -0.419683
v 0.428124 -0.019269 -0.497393
v -0.542328 -0.017104 0.494012
v 0.718407 1.307852 -0.216143
v -0.252046 1.310016 0.775262
v 0.097824 -0.083884 0.148415
v 0.388106 1.243236 0.429665
v -0.267235 0.258628 0.277630
v 0.292586 1.386084 -0.145798
v 0.002304 0.058964 -0.427048
v 0.023047 1.585749 0.558880
v -0.189529 -0.019268 0.712492
v 0.580821 -0.017104 -0.441295
v -0.526821 1.307852 0.489781
v 0.243529 1.310016 -0.664005
v 0.015631 -0.083885 0.016736
v -0.321661 1.243236 -0.205974
v 0.350493 0.258629 -0.177768
v -0.121357 1.386084 0.341895
v 0.215935 0.058964 0.564605
v 0.013202 1.585749 -0.400478
v -0.959973 0.028762 -0.814697
v 0.457592 0.032625 1.297010
v -0.538745 1.700186 -1.100519
v 0.878820 1.704049 1.011187
v 0.067320 -0.086535 0.025033
v 0.488547 1.584889 -0.260790
v 0.134864 0.385302 0.747599
v -0.561007 1.839780 -0.317016
v -0.982235 0.168356 -0.031193
v 0.556092 2.056726 0.461776
v 0.950311 -0.029507 0.766420
v -0.814060 0.009830 -1.059850
v 0.294756 1.759158 1.376863
v -1.469614 1.798496 -0.449407
v -0.188051 -0.064494 0.115504
v -0.843606 1.724171 0.725948
v -0.461786 0.366757 -0.524483
v 0.156605 1.833626 0.610208
v 0.812160 0.044961 -0.000235
v -1.117341 2.155422 0.085960
v -0.806385 0.024135 0.206005
v 0.896231 -0.089997 0.256831
v -0.930007 1.201508 -0.224104
v 0.772609 1.087376 -0.173278
v 0.043939 -0.104648 -0.042235
v -0.079684 1.072725 -0.472344
v 0.446015 0.185853 0.203280
v -0.503189 1.257783 0.112211
v -0.379567 0.080410 0.542320
v 0.322392 1.363226 -0.226829
v 0.775480 -0.107616 -0.253215
v -0.892003 0.023159 0.018082
v 0.767752 1.109142 0.321657
v -0.899730 1.239917 0.592954
v 0.002608 -0.092925 0.145146
v -0.005119 1.123834 0.720018
v -0.486727 0.242189 0.021861
v 0.278901 1.201787 0.078811
v 0.286628 -0.014972 -0.496061
v -0.494454 1.458948 0.596734
v -0.723419 0.032894 -0.651406
v 0.391077 0.036015 1.009318
v -0.241251 1.946130 -0.978580
v 0.873245 1.949251 0.682144
v 0.091166 -0.060259 0.004341
v 0.573334 1.852977 -0.322833
v 0.166403 0.433523 0.557529
v -0.266940 2.058913 -0.356908
v -0.749108 0.145678 -0.029735
v 0.648572 2.346759 0.230355
v 0.802996 0.032894 0.575481
v -0.599424 0.036015 -0.850466
v 0.389657 1.946130 0.986188
v -1.012763 1.949251 -0.439759
v -0.118816 -0.060259 0.081705
v -0.532155 1.852977 0.492411
v -0.295068 0.433523 -0.448024
v 0.299924 2.058913 0.370490
v 0.713264 0.145678 -0.040216
v -0.708407 2.346759 -0.037318
v -0.621514 -0.014129 0.164042
v 0.765790 -0.011965 0.171149
v -0.621514 1.312991 -0.240143
v 0.765790 1.315155 -0.233036
v 0.072138 -0.078745 -0.048121
v 0.072137 1.248375 -0.452306
v 0.418964 0.263768 0.124148
v -0.274689 1.391223 0.016729
v -0.274688 0.064103 0.420914
v 0.418963 1.590888 -0.280037
v 0.677206 -0.014129 -0.234256
v -0.687479 -0.011965 0.015341
v 0.751960 1.312991 0.162956
v -0.612725 1.315155 0.412553
v 0.034761 -0.078745 0.102537
v 0.109514 1.248375 0.499749
v -0.337943 0.263768 -0.002614
v 0.363609 1.391223 -0.025339
v 0.288855 0.064103 -0.422551
v -0.263189 1.590888 0.394598
vt 0.750000 0.000000
vt 0.750000 1.000000
vt 0.500000 1.000000
vt 0.500000 0.000000
vt 0.250000 1.000000
vt 0.250000 0.000000
vt 1.000000 1.000000
vt 1.000000 0.000000
vt 0.000000 1.000000
vt 0.000000 0.000000
vt 0.750000 0.000000
vt 0.750000 1.000000
vt 0.500000 1.000000
vt 0.500000 0.000000
vt 0.250000 1.000000
vt 0.250000 0.000000
vt 1.000000 1.000000
vt 1.000000 0.000000
vt 0.000000 1.000000
vt 0.000000 0.000000
vt 0.750000 0.000000
vt 0.750000 1.000000
vt 0.500000 1.000000
vt 0.500000 0.000000
vt 0.250000 1.000000
vt 0.250000 0.000000
vt 1.000000 1.000000
vt 1.000000 0.000000
vt 0.000000 1.000000
vt 0.000000 0.000000
vt 0.750000 0.000000
vt 0.750000 1.000000
vt 0.500000 1.000000
vt 0.500000 0.000000
vt 0.250000 1.000000
vt 0.250000 0.000000
vt 1.000000 1.000000
vt 1.000000 0.000000
vt 0.000000 1.000000
vt 0.000000 0.000000
vt 0.750000 0.000000
vt 0.750000 1.000000
vt 0.500000 1.000000
vt 0.500000 0.000000
vt 0.250000 1.000000
vt 0.250000 0.000000
vt 1.000000 1.000000
vt 1.000000 0.000000
vt 0.000000 1.000000
vt 0.000000 0.000000
vt 0.750000 0.000000
vt 0.750000 1.000000
vt 0.500000 1.000000
vt 0.500000 0.000000
vt 0.250000 1.000000
vt 0.250000 0.000000
vt 1.000000 1.000000
vt 1.000000 0.000000
vt 0.000000 1.000000
vt 0.000000 0.000000
vt 0.750000 0.000000
vt 0.750000 1.000000
vt 0.500000 1.000000
vt 0.500000 0.000000
vt 0.250000 1.000000
vt 0.250000 0.000000
vt 1.000000 1.000000
vt 1.000000 0.000000
vt 0.000000 1.000000
vt 0.000000 0.000000
vt 0.750000 0.000000
vt 0.750000 1.000000
vt 0.500000 1.000000
vt 0.500000 0.000000
vt 0.250000 1.000000
vt 0.250000 0.000000
vt 1.000000 1.000000
vt 1.000000 0.000000
vt 0.000000 1.000000
vt 0.000000 0.000000
vt 0.750000 0.000000
vt 0.750000 1.000000
vt 0.500000 1.000000
vt 0.500000 0.000000
vt 0.250000 1.000000
vt 0.250000 0.000000
vt 1.000000 1.000000
vt 1.000000 0.000000
vt 0.000000 1.000000
vt 0.000000 0.000000
vt 0.750000 0.000000
vt 0.750000 1.000000
vt 0.500000 1.000000
vt 0.500000 0.000000
vt 0.250000 1.000000
vt 0.250000 0.000000
vt 1.000000 1.000000
vt 1.000000 0.000000
vt 0.000000 1.000000
vt 0.000000 0.000000
vt 0.750000 0.000000
vt 0.750000 1.000000
vt 0.500000 1.000000
vt 0.500000 0.000000
vt 0.250000 1.000000
vt 0.250000 0.000000
vt 1.000000 1.000000
vt 1.000000 0.000000
vt 0.000000 1.000000
vt 0.000000 0.000000
vt 0.750000 0.000000
vt 0.750000 1.000000
vt 0.500000 1.000000
vt 0.500000 0.000000
vt 0.250000 1.000000
vt 0.250000 0.000000
vt 1.000000 1.000000
vt 1.000000 0.000000
vt 0.000000 1.000000
vt 0.000000 0.000000
vt 0.750000 0.000000
vt 0.750000 1.000000
vt 0.500000 1.000000
vt 0.500000 0.000000
vt 0.250000 1.000000
vt 0.250000 0.000000
vt 1.000000 1.000000
vt 1.000000 0.000000
vt 0.000000 1.000000
vt 0.000000 0.000000
vt 0.750000 0.000000
vt 0.750000 1.000000
vt 0.500000 1.000000
vt 0.500000 0.000000
vt 0.250000 1.000000
vt 0.250000 0.000000
vt 1.000000 1.000000
vt 1.000000 0.000000
vt 0.000000 1.000000
vt 0.000000 0.000000
vt 0.750000 0.000000
vt 0.750000 1.000000
vt 0.500000 1.000000
vt 0.500000 0.000000
vt 0.250000 1.000000
vt 0.250000 0.000000
vt 1.000000 1.000000
vt 1.000000 0.000000
vt 0.000000 1.000000
vt 0.000000 0.000000
vt 0.750000 0.000000
vt 0.750000 1.000000
vt 0.500000 1.000000
vt 0.500000 0.000000
vt 0.250000 1.000000
vt 0.250000 0.000000
vt 1.000000 1.000000
vt 1.000000 0.000000
vt 0.000000 1.000000
vt 0.000000 0.000000
vn 0.7197 0.2339 -0.6537
vn -0.6998 0.1713 -0.6935
vn 0.0670 0.2899 -0.9547
vn 0.7246 0.2327 -0.6487
vn -0.5399 0.3811 0.7505
vn 0.7809 0.2735 0.5616
vn 0.0833 0.4455 0.8914
vn -0.5455 0.3796 0.7473
vn -0.1157 0.2123 -0.9703
vn -0.9335 0.2711 0.2349
vn -0.7409 0.3509 -0.5726
vn -0.1089 0.2102 -0.9716
vn 0.2529 0.3811 0.8893
vn 0.9055 0.1742 -0.3870
vn 0.7850 0.4159 0.4591
vn 0.2471 0.3799 0.8914
vn 0.7287 0.2316 -0.6445
vn -0.7088 0.1682 -0.6850
vn 0.0643 0.2898 -0.9549
vn 0.7335 0.2304 -0.6394
vn -0.5969 0.2316 0.7682
vn 0.8233 0.1682 0.5421
vn 0.1134 0.2898 0.9503
vn -0.6026 0.2304 0.7641
vn -0.1242 0.2316 -0.9648
vn -0.9648 0.1682 0.2019
vn -0.7541 0.2898 -0.5894
vn -0.1173 0.2304 -0.9660
vn 0.3005 0.2316 0.9252
vn 0.9109 0.1682 -0.3769
vn 0.8501 0.2898 0.4397
vn 0.2939 0.2304 0.9277
vn -0.9703 0.2339 -0.0620
vn -0.0112 0.1713 0.9852
vn -0.7323 0.2899 0.6162
vn -0.9701 0.2327 -0.0690
vn 0.9147 0.3811 -0.1344
vn -0.1400 0.2735 -0.9516
vn 0.5822 0.4455 -0.6801
vn 0.9162 0.3796 -0.1282
vn -0.6164 0.2123 0.7583
vn 0.8182 0.2711 0.5070
vn 0.1043 0.3509 0.9306
vn -0.6220 0.2102 0.7542
vn 0.4627 0.3811 -0.8004
vn -0.9080 0.1742 -0.3810
vn -0.2165 0.4159 -0.8832
vn 0.4683 0.3799 -0.7977
vn -0.9699 0.2316 -0.0748
vn 0.0013 0.1682 0.9857
vn -0.7305 0.2898 0.6183
vn -0.9697 0.2304 -0.0819
vn 0.9670 0.2316 -0.1058
vn -0.1836 0.1682 -0.9685
vn 0.6036 0.2898 -0.7428
vn 0.9681 0.2304 -0.0989
vn -0.6065 0.2316 0.7606
vn 0.8164 0.1682 0.5524
vn 0.1015 0.2898 0.9517
vn -0.6122 0.2304 0.7564
vn 0.4554 0.2316 -0.8596
vn -0.9045 0.1682 -0.3919
vn -0.2757 0.2898 -0.9165
vn 0.4617 0.2304 -0.8566
usemtl Material.047
s off
f 7/1/1 10/2/1 6/3/1 5/4/1
f 6/3/2 8/5/2 9/6/2 5/4/2
f 4/7/3 10/2/3 7/1/3 2/8/3
f 9/6/4 8/5/4 3/9/4 1/10/4
usemtl Material.046
f 17/11/5 20/12/5 16/13/5 15/14/5
f 16/13/6 18/15/6 19/16/6 15/14/6
f 14/17/7 20/12/7 17/11/7 12/18/7
f 19/16/8 18/15/8 13/19/8 11/20/8
usemtl Material.045
f 27/21/9 30/22/9 26/23/9 25/24/9
f 26/23/10 28/25/10 29/26/10 25/24/10
f 24/27/11 30/22/11 27/21/11 22/28/11
f 29/26/12 28/25/12 23/29/12 21/30/12
usemtl Material.044
f 37/31/13 40/32/13 36/33/13 35/34/13
f 36/33/14 38/35/14 39/36/14 35/34/14
f 34/37/15 40/32/15 37/31/15 32/38/15
f 39/36/16 38/35/16 33/39/16 31/40/16
usemtl Material.043
f 47/41/17 50/42/17 46/43/17 45/44/17
f 46/43/18 48/45/18 49/46/18 45/44/18
f 44/47/19 50/42/19 47/41/19 42/48/19
f 49/46/20 48/45/20 43/49/20 41/50/20
usemtl Material.042
f 57/51/21 60/52/21 56/53/21 55/54/21
f 56/53/22 58/55/22 59/56/22 55/54/22
f 54/57/23 60/52/23 57/51/23 52/58/23
f 59/56/24 58/55/24 53/59/24 51/60/24
usemtl Material.041
f 67/61/25 70/62/25 66/63/25 65/64/25
f 66/63/26 68/65/26 69/66/26 65/64/26
f 64/67/27 70/62/27 67/61/27 62/68/27
f 69/66/28 68/65/28 63/69/28 61/70/28
usemtl Material.040
f 77/71/29 80/72/29 76/73/29 75/74/29
f 76/73/30 78/75/30 79/76/30 75/74/30
f 74/77/31 80/72/31 77/71/31 72/78/31
f 79/76/32 78/75/32 73/79/32 71/80/32
usemtl Material.039
f 87/81/33 90/82/33 86/83/33 85/84/33
f 86/83/34 88/85/34 89/86/34 85/84/34
f 84/87/35 90/82/35 87/81/35 82/88/35
f 89/86/36 88/85/36 83/89/36 81/90/36
usemtl Material.038
f 97/91/37 100/92/37 96/93/37 95/94/37
f 96/93/38 98/95/38 99/96/38 95/94/38
f 94/97/39 100/92/39 97/91/39 92/98/39
f 99/96/40 98/95/40 93/99/40 91/100/40
usemtl Material.037
f 107/101/41 110/102/41 106/103/41 105/104/41
f 106/103/42 108/105/42 109/106/42 105/104/42
f 104/107/43 110/102/43 107/101/43 102/108/43
f 109/106/44 108/105/44 103/109/44 101/110/44
usemtl Material.036
f 117/111/45 120/112/45 116/113/45 115/114/45
f 116/113/46 118/115/46 119/116/46 115/114/46
f 114/117/47 120/112/47 117/111/47 112/118/47
f 119/116/48 118/115/48 113/119/48 111/120/48
usemtl Material.004
f 127/121/49 130/122/49 126/123/49 125/124/49
f 126/123/50 128/125/50 129/126/50 125/124/50
f 124/127/51 130/122/51 127/121/51 122/128/51
f 129/126/52 128/125/52 123/129/52 121/130/52
usemtl Material.033
f 137/131/53 140/132/53 136/133/53 135/134/53
f 136/133/54 138/135/54 139/136/54 135/134/54
f 134/137/55 140/132/55 137/131/55 132/138/55
f 139/136/56 138/135/56 133/139/56 131/140/56
usemtl Material.035
f 147/141/57 150/142/57 146/143/57 145/144/57
f 146/143/58 148/145/58 149/146/58 145/144/58
f 144/147/59 150/142/59 147/141/59 142/148/59
f 149/146/60 148/145/60 143/149/60 141/150/60
usemtl Material.034
f 157/151/61 160/152/61 156/153/61 155/154/61
f 156/153/62 158/155/62 159/156/62 155/154/62
f 154/157/63 160/152/63 157/151/63 152/158/63
f 159/156/64 158/155/64 153/159/64 151/160/64
