# Blender v2.93.1 OBJ File: ''
# www.blender.org
mtllib SimpleBush2.mtl
o Plane_Plane.005
v -0.812434 -0.258835 0.297189
v 0.838221 -0.061689 0.430298
v -0.979382 1.646753 -0.286646
v 0.671273 1.843899 -0.153537
v -0.895908 0.693959 0.005271
v 0.039212 -0.138109 0.184893
v 0.754747 0.891105 0.138380
v -0.115386 1.755402 -0.419458
v -0.031912 0.802608 -0.127540
v 0.793273 -0.256462 0.102290
v -0.858869 -0.059316 -0.010872
v 0.967261 1.649126 0.684066
v -0.684881 1.846272 0.570904
v 0.880267 0.696332 0.393178
v -0.056954 -0.135736 0.224864
v -0.771875 0.893478 0.280016
v 0.104932 1.757775 0.827303
v 0.017938 0.804981 0.536415
v -0.162663 -0.196245 -0.535162
v -0.395868 0.000900 1.104349
v 0.430241 1.709342 -0.666311
v 0.197036 1.906488 0.973200
v 0.133789 0.756548 -0.600736
v -0.102345 -0.075520 0.321735
v -0.099416 0.953694 1.038774
v 0.510285 1.817991 0.204161
v 0.213833 0.865197 0.269736
v -0.065734 -0.193873 1.079423
v 0.147651 0.003273 -0.562785
v -0.657010 1.711715 1.217723
v -0.443626 1.908861 -0.424484
v -0.361372 0.758921 1.148573
v -0.136397 -0.073147 0.223317
v -0.147987 0.956067 -0.493635
v -0.747563 1.820364 0.348282
v -0.451925 0.867570 0.279132
v -0.628035 0.026857 0.303501
v 0.331772 0.141491 0.380900
v -0.725110 1.134899 -0.035982
v 0.234696 1.249534 0.041417
v -0.676572 0.580878 0.133759
v -0.132828 0.097055 0.238204
v 0.283234 0.695512 0.211158
v -0.222722 1.198076 -0.113208
v -0.174184 0.644054 0.056533
v 0.305636 0.028237 0.190173
v -0.655036 0.142871 0.124372
v 0.406804 1.136279 0.528458
v -0.553867 1.250913 0.462658
v 0.356220 0.582258 0.359315
v -0.188746 0.098435 0.261446
v -0.604451 0.696892 0.293515
v -0.094614 1.199455 0.611746
v -0.145198 0.645434 0.442604
v -0.250212 0.063251 -0.180487
v -0.385814 0.177885 0.772840
v 0.094543 1.171293 -0.256745
v -0.041058 1.285927 0.696581
v -0.077834 0.617272 -0.218616
v -0.215139 0.133449 0.317773
v -0.213436 0.731906 0.734710
v 0.141087 1.234469 0.249408
v -0.031291 0.680448 0.287537
v -0.193851 0.064630 0.758346
v -0.069774 0.179265 -0.196548
v -0.537661 1.172673 0.838764
v -0.413584 1.287307 -0.116131
v -0.365756 0.618652 0.798555
v -0.234940 0.134829 0.260547
v -0.241679 0.733286 -0.156340
v -0.590314 1.235849 0.333210
v -0.418409 0.681828 0.293001
v -1.016496 -0.250890 0.319945
v 1.339388 0.028260 0.513664
v -1.206892 1.922332 -0.345888
v 1.148993 2.201482 -0.152169
v -1.111694 0.835720 -0.012971
v 0.200155 -0.098489 0.169752
v 1.244191 1.114871 0.180747
v 0.027149 2.059383 -0.525569
v 0.122347 0.972772 -0.192653
v 1.271990 -0.224875 0.043000
v -1.076735 -0.042850 -0.092943
v 1.562849 2.045237 0.996293
v -0.785876 2.227262 0.860350
v 1.417420 0.910181 0.519646
v 0.063049 -0.094960 0.225872
v -0.931306 1.092206 0.383703
v 0.336299 2.162360 1.207017
v 0.190870 1.027304 0.730371
v -0.086068 -0.225915 -0.834924
v -0.419949 0.123302 1.460248
v 0.804370 1.999823 -0.874353
v 0.470489 2.349040 1.420819
v 0.359151 0.886954 -0.854638
v -0.000565 -0.018452 0.365304
v 0.025270 1.236171 1.440533
v 0.917640 2.194708 0.343750
v 0.472421 1.081839 0.363465
v 0.045873 -0.097844 1.409488
v 0.360881 0.011955 -0.859319
v -0.751849 2.120325 1.749203
v -0.436841 2.230124 -0.519603
v -0.352988 1.011241 1.579345
v -0.048644 -0.023992 0.228795
v -0.037980 1.121040 -0.689461
v -0.874938 2.178610 0.549127
v -0.476077 1.069525 0.379269
v -0.747025 0.087044 0.349776
v 0.622851 0.249361 0.462417
v -0.857735 1.350707 -0.037386
v 0.512142 1.513025 0.075256
v -0.802380 0.718876 0.156195
v -0.039579 0.175660 0.262443
v 0.567496 0.881193 0.268836
v -0.140177 1.430399 -0.141865
v -0.084822 0.798567 0.051716
v 0.583661 0.102171 0.188740
v -0.782052 0.208013 0.109693
v 0.752787 1.422173 0.743052
v -0.612927 1.528015 0.664005
v 0.668224 0.762172 0.465896
v -0.119302 0.177713 0.295075
v -0.697489 0.868014 0.386849
v 0.039585 1.490277 0.865582
v -0.044978 0.830276 0.588426
v -0.206009 0.101566 -0.321746
v -0.400151 0.304625 1.012828
v 0.311754 1.395766 -0.344673
v 0.117612 1.598825 0.989901
v 0.052872 0.748666 -0.333209
v -0.156292 0.222200 0.376150
v -0.141269 0.951725 1.001364
v 0.377617 1.509086 0.363618
v 0.118735 0.861986 0.375081
v -0.129289 0.176036 0.983312
v 0.053879 0.239881 -0.335931
v -0.593141 1.465835 1.180846
v -0.409973 1.529680 -0.138396
v -0.361215 0.820935 1.082079
v -0.184248 0.218979 0.296774
v -0.178047 0.884780 -0.237164
v -0.664713 1.499726 0.483038
v -0.432788 0.854826 0.384271
v -0.816462 -0.182892 0.632703
v 0.699869 -0.156534 -0.061048
v -0.841292 1.816926 0.622139
v 0.675039 1.843284 -0.071613
v -0.828877 0.817017 0.627421
v -0.116015 -0.100139 0.127717
v 0.687454 0.843375 -0.066331
v -0.142510 1.892972 0.091239
v -0.130095 0.893063 0.096521
v 0.465472 -0.247062 -0.351580
v -0.960956 0.098228 0.440459
v 1.285199 1.398701 0.435511
v -0.141228 1.743991 1.227549
v 0.875336 0.575819 0.041966
v -0.178846 -0.101861 0.210786
v -0.551092 0.921110 0.834004
v 0.637823 1.527446 1.018831
v 0.227960 0.704564 0.625286
v -0.642311 0.062308 -0.381434
v -0.023376 -0.193259 1.145933
v 0.197714 1.877211 -0.403499
v 0.816648 1.621644 1.123869
v -0.222298 0.969759 -0.392467
v -0.159259 -0.068115 0.327181
v 0.396636 0.714193 1.134901
v 0.701580 1.729922 0.303861
v 0.281567 0.822471 0.314894
v 0.206906 -0.397492 0.916140
v -0.348551 0.237486 -0.522441
v 0.161516 1.431001 1.725185
v -0.393941 2.065980 0.286603
v 0.184211 0.516754 1.320662
v -0.234582 -0.035553 0.263015
v -0.371246 1.151733 -0.117919
v -0.305818 1.786647 1.068642
v -0.283123 0.872401 0.664120
v -0.596483 0.074671 0.602155
v 0.285218 0.089997 0.198759
v -0.610921 1.237505 0.596012
v 0.270780 1.252832 0.192616
v -0.603702 0.656088 0.599083
v -0.189194 0.122790 0.308521
v 0.277999 0.671415 0.195688
v -0.204601 1.281724 0.287309
v -0.197382 0.700307 0.290381
v 0.148923 0.037358 0.029824
v -0.680502 0.238134 0.490370
v 0.625570 0.994320 0.487493
v -0.203855 1.195096 0.948040
v 0.387246 0.515839 0.258658
v -0.225729 0.121788 0.356823
v -0.442179 0.716615 0.719205
v 0.249140 1.069181 0.826677
v 0.010817 0.590700 0.597842
v -0.495220 0.217248 0.012464
v -0.135328 0.068643 0.900583
v -0.006770 1.272559 -0.000366
v 0.353121 1.123955 0.887753
v -0.250995 0.744903 0.006049
v -0.214340 0.141411 0.424503
v 0.108897 0.596299 0.894168
v 0.286212 1.186915 0.410943
v 0.041988 0.659259 0.417358
v -0.001426 -0.050113 0.766965
v -0.324407 0.319109 -0.069527
v -0.027819 1.013102 1.237400
v -0.350800 1.382323 0.400908
v -0.014622 0.481495 1.002182
v -0.258138 0.160344 0.387192
v -0.337604 0.850716 0.165690
v -0.299559 1.219899 0.855640
v -0.286363 0.688292 0.620423
v -0.978623 -0.166283 0.757805
v 1.186862 -0.131844 -0.229684
v -1.006940 2.114403 0.745756
v 1.158545 2.148842 -0.241732
v -0.992782 0.974060 0.751781
v 0.022722 -0.070139 0.040805
v 1.172703 1.008499 -0.235708
v -0.007884 2.202857 -0.007893
v 0.006275 1.062514 -0.001868
v 0.853500 -0.236323 -0.639681
v -1.182880 0.153557 0.486940
v 2.024979 1.644653 0.472227
v -0.011401 2.034533 1.598848
v 1.439239 0.704165 -0.083727
v -0.067240 -0.072208 0.158544
v -0.597140 1.094045 1.042894
v 1.099732 1.790017 1.300076
v 0.513992 0.849530 0.744122
v -0.725099 0.112568 -0.676771
v 0.150188 -0.174596 1.480229
v 0.479355 2.185390 -0.709008
v 1.354642 1.898227 1.447992
v -0.122872 1.148979 -0.692890
v -0.039682 -0.033490 0.323112
v 0.752415 0.861816 1.464110
v 1.194402 2.020170 0.288988
v 0.592175 0.983758 0.305106
v 0.478849 -0.407033 1.153998
v -0.304951 0.313197 -0.877183
v 0.417131 1.679328 2.300876
v -0.366669 2.399558 0.269697
v 0.447990 0.636148 1.727437
v -0.146714 0.003292 0.232734
v -0.335810 1.356377 -0.303743
v -0.245299 2.082380 1.374882
v -0.214439 1.039200 0.801442
v -0.663873 0.128200 0.714029
v 0.595291 0.148225 0.139834
v -0.680339 1.454351 0.707023
v 0.578826 1.474376 0.132828
v -0.672106 0.791275 0.710526
v -0.081621 0.184105 0.297115
v 0.587059 0.811301 0.136331
v -0.099417 1.505784 0.268799
v -0.091184 0.842709 0.272302
v 0.401451 0.087474 -0.098567
v -0.782643 0.314177 0.556529
v 1.082632 1.181205 0.547974
v -0.101462 1.407908 1.203071
v 0.742041 0.634340 0.224704
v -0.133931 0.182902 0.365577
v -0.442052 0.861043 0.879800
v 0.544628 1.265730 1.029344
v 0.204038 0.718865 0.706073
v -0.516457 0.290344 -0.120134
v -0.007503 0.123366 1.134097
v 0.183898 1.495628 -0.138879
v 0.692851 1.328651 1.115352
v -0.166279 0.892986 -0.129506
v -0.117907 0.205415 0.461269
v 0.342674 0.726009 1.124725
v 0.599676 1.399557 0.441426
v 0.249499 0.796915 0.450799
v 0.183604 -0.011789 0.944404
v -0.272153 0.407003 -0.236667
v 0.147716 1.201368 1.611279
v -0.308040 1.620160 0.430209
v 0.165660 0.594790 1.277841
v -0.180143 0.226803 0.408716
v -0.290097 1.013582 0.096771
v -0.237467 1.435730 1.072841
v -0.219523 0.829152 0.739403
vt 1.000000 0.500000
vt 1.000000 1.000000
vt 0.500000 1.000000
vt 0.500000 0.500000
vt 0.500000 0.000000
vt 1.000000 0.000000
vt 0.000000 1.000000
vt 0.000000 0.500000
vt 0.000000 0.000000
vt 1.000000 0.500000
vt 1.000000 1.000000
vt 0.500000 1.000000
vt 0.500000 0.500000
vt 0.500000 0.000000
vt 1.000000 0.000000
vt 0.000000 1.000000
vt 0.000000 0.500000
vt 0.000000 0.000000
vt 1.000000 0.500000
vt 1.000000 1.000000
vt 0.500000 1.000000
vt 0.500000 0.500000
vt 0.500000 0.000000
vt 1.000000 0.000000
vt 0.000000 1.000000
vt 0.000000 0.500000
vt 0.000000 0.000000
vt 1.000000 0.500000
vt 1.000000 1.000000
vt 0.500000 1.000000
vt 0.500000 0.500000
vt 0.500000 0.000000
vt 1.000000 0.000000
vt 0.000000 1.000000
vt 0.000000 0.500000
vt 0.000000 0.000000
vt 1.000000 0.500000
vt 1.000000 1.000000
vt 0.500000 1.000000
vt 0.500000 0.500000
vt 0.500000 0.000000
vt 1.000000 0.000000
vt 0.000000 1.000000
vt 0.000000 0.500000
vt 0.000000 0.000000
vt 1.000000 0.500000
vt 1.000000 1.000000
vt 0.500000 1.000000
vt 0.500000 0.500000
vt 0.500000 0.000000
vt 1.000000 0.000000
vt 0.000000 1.000000
vt 0.000000 0.500000
vt 0.000000 0.000000
vt 1.000000 0.500000
vt 1.000000 1.000000
vt 0.500000 1.000000
vt 0.500000 0.500000
vt 0.500000 0.000000
vt 1.000000 0.000000
vt 0.000000 1.000000
vt 0.000000 0.500000
vt 0.000000 0.000000
vt 1.000000 0.500000
vt 1.000000 1.000000
vt 0.500000 1.000000
vt 0.500000 0.500000
vt 0.500000 0.000000
vt 1.000000 0.000000
vt 0.000000 1.000000
vt 0.000000 0.500000
vt 0.000000 0.000000
vt 1.000000 0.500000
vt 1.000000 1.000000
vt 0.500000 1.000000
vt 0.500000 0.500000
vt 0.500000 0.000000
vt 1.000000 0.000000
vt 0.000000 1.000000
vt 0.000000 0.500000
vt 0.000000 0.000000
vt 1.000000 0.500000
vt 1.000000 1.000000
vt 0.500000 1.000000
vt 0.500000 0.500000
vt 0.500000 0.000000
vt 1.000000 0.000000
vt 0.000000 1.000000
vt 0.000000 0.500000
vt 0.000000 0.000000
vt 1.000000 0.500000
vt 1.000000 1.000000
vt 0.500000 1.000000
vt 0.500000 0.500000
vt 0.500000 0.000000
vt 1.000000 0.000000
vt 0.000000 1.000000
vt 0.000000 0.500000
vt 0.000000 0.000000
vt 1.000000 0.500000
vt 1.000000 1.000000
vt 0.500000 1.000000
vt 0.500000 0.500000
vt 0.500000 0.000000
vt 1.000000 0.000000
vt 0.000000 1.000000
vt 0.000000 0.500000
vt 0.000000 0.000000
vt 1.000000 0.500000
vt 1.000000 1.000000
vt 0.500000 1.000000
vt 0.500000 0.500000
vt 0.500000 0.000000
vt 1.000000 0.000000
vt 0.000000 1.000000
vt 0.000000 0.500000
vt 0.000000 0.000000
vt 1.000000 0.500000
vt 1.000000 1.000000
vt 0.500000 1.000000
vt 0.500000 0.500000
vt 0.500000 0.000000
vt 1.000000 0.000000
vt 0.000000 1.000000
vt 0.000000 0.500000
vt 0.000000 0.000000
vt 1.000000 0.500000
vt 1.000000 1.000000
vt 0.500000 1.000000
vt 0.500000 0.500000
vt 0.500000 0.000000
vt 1.000000 0.000000
vt 0.000000 1.000000
vt 0.000000 0.500000
vt 0.000000 0.000000
vt 1.000000 0.500000
vt 1.000000 1.000000
vt 0.500000 1.000000
vt 0.500000 0.500000
vt 0.500000 0.000000
vt 1.000000 0.000000
vt 0.000000 1.000000
vt 0.000000 0.500000
vt 0.000000 0.000000
vt 1.000000 0.500000
vt 1.000000 1.000000
vt 0.500000 1.000000
vt 0.500000 0.500000
vt 0.500000 0.000000
vt 1.000000 0.000000
vt 0.000000 1.000000
vt 0.000000 0.500000
vt 0.000000 0.000000
vt 1.000000 0.500000
vt 1.000000 1.000000
vt 0.500000 1.000000
vt 0.500000 0.500000
vt 0.500000 0.000000
vt 1.000000 0.000000
vt 0.000000 1.000000
vt 0.000000 0.500000
vt 0.000000 0.000000
vt 1.000000 0.500000
vt 1.000000 1.000000
vt 0.500000 1.000000
vt 0.500000 0.500000
vt 0.500000 0.000000
vt 1.000000 0.000000
vt 0.000000 1.000000
vt 0.000000 0.500000
vt 0.000000 0.000000
vt 1.000000 0.500000
vt 1.000000 1.000000
vt 0.500000 1.000000
vt 0.500000 0.500000
vt 0.500000 0.000000
vt 1.000000 0.000000
vt 0.000000 1.000000
vt 0.000000 0.500000
vt 0.000000 0.000000
vt 1.000000 0.500000
vt 1.000000 1.000000
vt 0.500000 1.000000
vt 0.500000 0.500000
vt 0.500000 0.000000
vt 1.000000 0.000000
vt 0.000000 1.000000
vt 0.000000 0.500000
vt 0.000000 0.000000
vt 1.000000 0.500000
vt 1.000000 1.000000
vt 0.500000 1.000000
vt 0.500000 0.500000
vt 0.500000 0.000000
vt 1.000000 0.000000
vt 0.000000 1.000000
vt 0.000000 0.500000
vt 0.000000 0.000000
vt 1.000000 0.500000
vt 1.000000 1.000000
vt 0.500000 1.000000
vt 0.500000 0.500000
vt 0.500000 0.000000
vt 1.000000 0.000000
vt 0.000000 1.000000
vt 0.000000 0.500000
vt 0.000000 0.000000
vt 1.000000 0.500000
vt 1.000000 1.000000
vt 0.500000 1.000000
vt 0.500000 0.500000
vt 0.500000 0.000000
vt 1.000000 0.000000
vt 0.000000 1.000000
vt 0.000000 0.500000
vt 0.000000 0.000000
vt 1.000000 0.500000
vt 1.000000 1.000000
vt 0.500000 1.000000
vt 0.500000 0.500000
vt 0.500000 0.000000
vt 1.000000 0.000000
vt 0.000000 1.000000
vt 0.000000 0.500000
vt 0.000000 0.000000
vt 1.000000 0.500000
vt 1.000000 1.000000
vt 0.500000 1.000000
vt 0.500000 0.500000
vt 0.500000 0.000000
vt 1.000000 0.000000
vt 0.000000 1.000000
vt 0.000000 0.500000
vt 0.000000 0.000000
vt 1.000000 0.500000
vt 1.000000 1.000000
vt 0.500000 1.000000
vt 0.500000 0.500000
vt 0.500000 0.000000
vt 1.000000 0.000000
vt 0.000000 1.000000
vt 0.000000 0.500000
vt 0.000000 0.000000
vt 1.000000 0.500000
vt 1.000000 1.000000
vt 0.500000 1.000000
vt 0.500000 0.500000
vt 0.500000 0.000000
vt 1.000000 0.000000
vt 0.000000 1.000000
vt 0.000000 0.500000
vt 0.000000 0.000000
vt 1.000000 0.500000
vt 1.000000 1.000000
vt 0.500000 1.000000
vt 0.500000 0.500000
vt 0.500000 0.000000
vt 1.000000 0.000000
vt 0.000000 1.000000
vt 0.000000 0.500000
vt 0.000000 0.000000
vt 1.000000 0.500000
vt 1.000000 1.000000
vt 0.500000 1.000000
vt 0.500000 0.500000
vt 0.500000 0.000000
vt 1.000000 0.000000
vt 0.000000 1.000000
vt 0.000000 0.500000
vt 0.000000 0.000000
vt 1.000000 0.500000
vt 1.000000 1.000000
vt 0.500000 1.000000
vt 0.500000 0.500000
vt 0.500000 0.000000
vt 1.000000 0.000000
vt 0.000000 1.000000
vt 0.000000 0.500000
vt 0.000000 0.000000
vt 1.000000 0.500000
vt 1.000000 1.000000
vt 0.500000 1.000000
vt 0.500000 0.500000
vt 0.500000 0.000000
vt 1.000000 0.000000
vt 0.000000 1.000000
vt 0.000000 0.500000
vt 0.000000 0.000000
vn -0.3280 0.2566 0.9092
vn 0.1009 0.3047 0.9471
vn 0.3170 0.2566 -0.9131
vn -0.1124 0.3047 -0.9458
vn -0.8875 0.2566 -0.3827
vn -0.9515 0.3047 0.0432
vn 0.8921 0.2566 0.3719
vn 0.9509 0.3047 -0.0547
vn -0.3271 0.2582 0.9090
vn 0.0977 0.3058 0.9471
vn 0.2882 0.3456 -0.8930
vn -0.1119 0.4022 -0.9087
vn -0.8527 0.3420 -0.3949
vn -0.9258 0.3775 0.0195
vn 0.8889 0.2715 0.3689
vn 0.9327 0.3534 -0.0721
vn 0.2037 0.0142 0.9789
vn 0.5987 0.0171 0.8008
vn -0.1087 0.4786 -0.8713
vn -0.4816 0.5664 -0.6688
vn -0.8877 0.4203 0.1879
vn -0.7305 0.3512 0.5857
vn 0.9929 0.0733 -0.0940
vn 0.8508 0.2350 -0.4700
vn 0.2047 0.0157 0.9787
vn 0.5961 0.0184 0.8027
vn -0.1053 0.5604 -0.8215
vn -0.4434 0.6491 -0.6181
vn -0.8460 0.5028 0.1774
vn -0.7047 0.4255 0.5678
vn 0.9918 0.0886 -0.0918
vn 0.8371 0.2879 -0.4652
usemtl Material.001
s off
f 7/1/1 4/2/1 8/3/1 9/4/1 6/5/1 2/6/1
f 9/4/2 8/3/2 3/7/2 5/8/2 1/9/2 6/5/2
usemtl Material.002
f 16/10/3 13/11/3 17/12/3 18/13/3 15/14/3 11/15/3
f 18/13/4 17/12/4 12/16/4 14/17/4 10/18/4 15/14/4
usemtl Material.004
f 25/19/5 22/20/5 26/21/5 27/22/5 24/23/5 20/24/5
f 27/22/6 26/21/6 21/25/6 23/26/6 19/27/6 24/23/6
usemtl Material.003
f 34/28/7 31/29/7 35/30/7 36/31/7 33/32/7 29/33/7
f 36/31/8 35/30/8 30/34/8 32/35/8 28/36/8 33/32/8
usemtl Material.008
f 43/37/1 40/38/1 44/39/1 45/40/1 42/41/1 38/42/1
f 45/40/2 44/39/2 39/43/2 41/44/2 37/45/2 42/41/2
usemtl Material.007
f 52/46/3 49/47/3 53/48/3 54/49/3 51/50/3 47/51/3
f 54/49/4 53/48/4 48/52/4 50/53/4 46/54/4 51/50/4
usemtl Material.006
f 61/55/5 58/56/5 62/57/5 63/58/5 60/59/5 56/60/5
f 63/58/6 62/57/6 57/61/6 59/62/6 55/63/6 60/59/6
usemtl Material.005
f 70/64/7 67/65/7 71/66/7 72/67/7 69/68/7 65/69/7
f 72/67/8 71/66/8 66/70/8 68/71/8 64/72/8 69/68/8
usemtl Material.016
f 79/73/9 76/74/9 80/75/9 81/76/9 78/77/9 74/78/9
f 81/76/10 80/75/10 75/79/10 77/80/10 73/81/10 78/77/10
usemtl Material.015
f 88/82/11 85/83/11 89/84/11 90/85/11 87/86/11 83/87/11
f 90/85/12 89/84/12 84/88/12 86/89/12 82/90/12 87/86/12
usemtl Material.014
f 97/91/13 94/92/13 98/93/13 99/94/13 96/95/13 92/96/13
f 99/94/14 98/93/14 93/97/14 95/98/14 91/99/14 96/95/14
usemtl Material.013
f 106/100/15 103/101/15 107/102/15 108/103/15 105/104/15 101/105/15
f 108/103/16 107/102/16 102/106/16 104/107/16 100/108/16 105/104/16
usemtl Material.012
f 115/109/9 112/110/9 116/111/9 117/112/9 114/113/9 110/114/9
f 117/112/10 116/111/10 111/115/10 113/116/10 109/117/10 114/113/10
usemtl Material.011
f 124/118/11 121/119/11 125/120/11 126/121/11 123/122/11 119/123/11
f 126/121/12 125/120/12 120/124/12 122/125/12 118/126/12 123/122/12
usemtl Material.010
f 133/127/13 130/128/13 134/129/13 135/130/13 132/131/13 128/132/13
f 135/130/14 134/129/14 129/133/14 131/134/14 127/135/14 132/131/14
usemtl Material.009
f 142/136/15 139/137/15 143/138/15 144/139/15 141/140/15 137/141/15
f 144/139/16 143/138/16 138/142/16 140/143/16 136/144/16 141/140/16
usemtl Material.032
f 151/145/17 148/146/17 152/147/17 153/148/17 150/149/17 146/150/17
f 153/148/18 152/147/18 147/151/18 149/152/18 145/153/18 150/149/18
usemtl Material.031
f 160/154/19 157/155/19 161/156/19 162/157/19 159/158/19 155/159/19
f 162/157/20 161/156/20 156/160/20 158/161/20 154/162/20 159/158/20
usemtl Material.030
f 169/163/21 166/164/21 170/165/21 171/166/21 168/167/21 164/168/21
f 171/166/22 170/165/22 165/169/22 167/170/22 163/171/22 168/167/22
usemtl Material.029
f 178/172/23 175/173/23 179/174/23 180/175/23 177/176/23 173/177/23
f 180/175/24 179/174/24 174/178/24 176/179/24 172/180/24 177/176/24
usemtl Material.028
f 187/181/17 184/182/17 188/183/17 189/184/17 186/185/17 182/186/17
f 189/184/18 188/183/18 183/187/18 185/188/18 181/189/18 186/185/18
usemtl Material.027
f 196/190/19 193/191/19 197/192/19 198/193/19 195/194/19 191/195/19
f 198/193/20 197/192/20 192/196/20 194/197/20 190/198/20 195/194/20
usemtl Material.026
f 205/199/21 202/200/21 206/201/21 207/202/21 204/203/21 200/204/21
f 207/202/22 206/201/22 201/205/22 203/206/22 199/207/22 204/203/22
usemtl Material.025
f 214/208/23 211/209/23 215/210/23 216/211/23 213/212/23 209/213/23
f 216/211/24 215/210/24 210/214/24 212/215/24 208/216/24 213/212/24
usemtl Material.024
f 223/217/25 220/218/25 224/219/25 225/220/25 222/221/25 218/222/25
f 225/220/26 224/219/26 219/223/26 221/224/26 217/225/26 222/221/26
usemtl Material.023
f 232/226/27 229/227/27 233/228/27 234/229/27 231/230/27 227/231/27
f 234/229/28 233/228/28 228/232/28 230/233/28 226/234/28 231/230/28
usemtl Material.022
f 241/235/29 238/236/29 242/237/29 243/238/29 240/239/29 236/240/29
f 243/238/30 242/237/30 237/241/30 239/242/30 235/243/30 240/239/30
usemtl Material.021
f 250/244/31 247/245/31 251/246/31 252/247/31 249/248/31 245/249/31
f 252/247/32 251/246/32 246/250/32 248/251/32 244/252/32 249/248/32
usemtl Material.020
f 259/253/25 256/254/25 260/255/25 261/256/25 258/257/25 254/258/25
f 261/256/26 260/255/26 255/259/26 257/260/26 253/261/26 258/257/26
usemtl Material.019
f 268/262/27 265/263/27 269/264/27 270/265/27 267/266/27 263/267/27
f 270/265/28 269/264/28 264/268/28 266/269/28 262/270/28 267/266/28
usemtl Material.018
f 277/271/29 274/272/29 278/273/29 279/274/29 276/275/29 272/276/29
f 279/274/30 278/273/30 273/277/30 275/278/30 271/279/30 276/275/30
usemtl Material.017
f 286/280/31 283/281/31 287/282/31 288/283/31 285/284/31 281/285/31
f 288/283/32 287/282/32 282/286/32 284/287/32 280/288/32 285/284/32
