# Blender v2.83.3 OBJ File: 'PolyTreeFinished.blend'
# www.blender.org
mtllib PolyTree.mtl
o PolyTree
v -0.000000 7.866183 -0.017500
v 0.016643 7.866183 -0.005408
v 0.010286 7.866183 0.014158
v -0.010286 7.866183 0.014158
v -0.016644 7.866183 -0.005408
v 1.225459 3.020000 -0.398176
v 0.903775 3.950000 -0.293654
v 0.604882 4.881183 -0.196538
v 0.358468 5.931183 -0.116473
v 0.160054 6.946183 -0.052005
v 0.098919 6.946183 0.136150
v 0.221545 5.931183 0.304931
v 0.373838 4.881183 0.514544
v 0.558563 3.950000 0.768797
v 0.757375 3.020000 1.042438
v -1.225459 3.020000 -0.398176
v -0.903775 3.950000 -0.293654
v -0.604882 4.881183 -0.196538
v -0.358468 5.931183 -0.116473
v -0.160054 6.946183 -0.052005
v -0.000000 6.946183 -0.168291
v -0.000000 5.931183 -0.376915
v 0.000000 4.881183 -0.636011
v 0.000000 3.950000 -0.950285
v 0.000000 3.020000 -1.288524
v -0.098919 6.946183 0.136150
v -0.221545 5.931183 0.304931
v -0.373838 4.881183 0.514544
v -0.558564 3.950000 0.768797
v -0.757376 3.020000 1.042438
v 1.110213 2.200000 1.528078
v 0.000000 2.200000 -1.888808
v -1.110214 2.200000 1.528078
v 1.796363 2.200000 -0.583674
v -1.796363 2.200000 -0.583674
v 1.400731 3.020000 -0.455125
v 0.865699 3.020000 1.191533
v -1.400731 3.020000 -0.455125
v 0.000000 3.020000 -1.472815
v -0.865699 3.020000 1.191533
v 1.025429 3.950000 -0.333182
v 0.633750 3.950000 0.872282
v -1.025429 3.950000 -0.333182
v 0.000000 3.950000 -1.078200
v -0.633750 3.950000 0.872282
v 0.693954 4.881183 -0.225479
v 0.428887 4.881183 0.590313
v -0.693954 4.881183 -0.225479
v 0.000000 4.881183 -0.729666
v -0.428887 4.881183 0.590313
v 0.425292 5.931183 -0.138186
v 0.262845 5.931183 0.361775
v -0.425292 5.931183 -0.138186
v -0.000000 5.931183 -0.447179
v -0.262845 5.931183 0.361775
v 0.223568 6.946183 -0.072642
v -0.223568 6.946183 -0.072642
v 0.138173 6.946183 0.190179
v -0.000000 6.946183 -0.235074
v -0.138173 6.946183 0.190179
v 0.016831 7.866183 0.005469
v 1.239272 2.820000 0.402664
v 0.913961 3.750000 0.296964
v 0.611700 4.716183 0.198753
v 0.362508 5.816184 0.117786
v 0.161858 6.866183 0.052591
v 1.816610 2.000000 0.590252
v 1.416519 2.820000 0.460255
v 1.036987 3.750000 0.336937
v 0.701776 4.716183 0.228021
v 0.430086 5.816184 0.139743
v 0.226088 6.866183 0.073460
v -0.000000 7.866183 0.017697
v -0.000000 2.820000 1.303047
v -0.000000 3.750000 0.960996
v -0.000000 4.716183 0.643179
v -0.000000 5.816184 0.381163
v -0.000000 6.866183 0.170188
v -0.000000 2.000000 1.910097
v -0.000000 2.820000 1.489416
v -0.000000 3.750000 1.090352
v -0.000000 4.716183 0.737890
v -0.000000 5.816184 0.452219
v -0.000000 6.866183 0.237723
v -0.016831 7.866183 0.005468
v -1.239272 2.820000 0.402663
v -0.913961 3.750000 0.296964
v -0.611700 4.716183 0.198753
v -0.362508 5.816184 0.117786
v -0.161858 6.866183 0.052591
v -1.816610 2.000000 0.590252
v -1.416519 2.820000 0.460254
v -1.036987 3.750000 0.336937
v -0.701776 4.716183 0.228020
v -0.430086 5.816184 0.139743
v -0.226088 6.866183 0.073460
v -0.010402 7.866183 -0.014318
v -0.765912 2.820000 -1.054188
v -0.564859 3.750000 -0.777462
v -0.378051 4.716183 -0.520343
v -0.224042 5.816184 -0.308368
v -0.100034 6.866183 -0.137685
v -1.122727 2.000000 -1.545302
v -0.875457 2.820000 -1.204963
v -0.640893 3.750000 -0.882114
v -0.433721 4.716183 -0.596966
v -0.265808 5.816184 -0.365853
v -0.139730 6.866183 -0.192322
v 0.010402 7.866183 -0.014318
v 0.765912 2.820000 -1.054188
v 0.564859 3.750000 -0.777462
v 0.378051 4.716183 -0.520343
v 0.224042 5.816184 -0.308368
v 0.100034 6.866183 -0.137685
v 1.122727 2.000000 -1.545301
v 0.875457 2.820000 -1.204963
v 0.640893 3.750000 -0.882114
v 0.433721 4.716183 -0.596966
v 0.265808 5.816184 -0.365853
v 0.139730 6.866183 -0.192322
v 1.043600 2.194000 1.436393
v 0.000000 2.194000 -1.775480
v -1.043601 2.194000 1.436393
v 1.688581 2.194000 -0.548653
v -1.688581 2.194000 -0.548654
v 1.707614 2.000000 0.554837
v -0.000000 2.000000 1.795491
v -1.707614 2.000000 0.554837
v -1.055363 2.000000 -1.452583
v 1.055363 2.000000 -1.452583
v 0.142718 2.268500 -0.196435
v -0.000000 2.268500 -0.240100
v 0.230922 2.268500 0.075031
v 0.228349 2.268500 -0.074195
v -0.000000 2.268500 0.242806
v 0.141127 2.268500 0.194245
v -0.230923 2.268500 0.075031
v -0.141127 2.268500 0.194245
v -0.142718 2.268500 -0.196435
v -0.228349 2.268500 -0.074195
v 0.947569 2.268500 1.304217
v 0.000000 2.268500 -1.612100
v -0.947569 2.268500 1.304216
v 1.533198 2.268500 -0.498166
v -1.533198 2.268500 -0.498167
v 1.550479 2.268500 0.503781
v -0.000000 2.268500 1.630270
v -1.550479 2.268500 0.503781
v -0.958249 2.268500 -1.318917
v 0.958249 2.268500 -1.318917
v 0.330099 0.000000 -0.454343
v -0.000000 0.000000 -0.555339
v 0.534112 0.000000 0.173543
v 0.528159 0.000000 -0.171609
v -0.000000 0.000000 0.561598
v 0.326420 0.000000 0.449279
v -0.534112 0.000000 0.173543
v -0.326420 0.000000 0.449279
v -0.330099 0.000000 -0.454343
v -0.528159 0.000000 -0.171609
v 0.298143 1.250000 -0.096872
v 0.301503 1.250000 0.097964
v 0.184262 1.250000 0.253616
v 0.186339 1.250000 -0.256474
v -0.000000 1.250000 0.317019
v -0.184263 1.250000 0.253616
v -0.301504 1.250000 0.097964
v -0.298143 1.250000 -0.096872
v -0.000000 1.250000 -0.313486
v -0.186339 1.250000 -0.256474
vt 0.261839 0.356631
vt 0.261820 0.356643
vt 0.261805 0.356615
vt 0.261805 0.356614
vt 0.918891 0.473831
vt 0.820493 0.468060
vt 0.819661 0.487652
vt 0.918551 0.487652
vt 0.922107 0.528872
vt 0.826355 0.545542
vt 0.831365 0.563843
vt 0.924870 0.542296
vt 0.837676 0.581149
vt 0.928243 0.555575
vt 0.922107 0.446432
vt 0.924870 0.433008
vt 0.831365 0.411460
vt 0.826355 0.429762
vt 0.920168 0.515211
vt 0.822634 0.526644
vt 0.261804 0.356615
vt 0.261804 0.356614
vt 0.261804 0.356614
vt 0.261804 0.356614
vt 0.261804 0.356614
vt 0.261805 0.356613
vt 0.261805 0.356614
vt 0.261805 0.356614
vt 0.261766 0.356620
vt 0.261775 0.356599
vt 0.261799 0.356652
vt 0.261781 0.356638
vt 0.261832 0.356587
vt 0.261837 0.356609
vt 0.261787 0.356580
vt 0.261810 0.356581
vt 0.179392 0.196306
vt 0.289185 0.179602
vt 0.275920 0.265361
vt 0.215403 0.266355
vt 0.222024 0.279232
vt 0.274461 0.274790
vt 0.267074 0.322550
vt 0.244014 0.322008
vt 0.246367 0.326585
vt 0.266575 0.325772
vt 0.263260 0.347205
vt 0.256770 0.346821
vt 0.257477 0.348195
vt 0.263115 0.348145
vt 0.261987 0.355436
vt 0.261150 0.355340
vt 0.261264 0.355562
vt 0.261965 0.355578
vt 0.261811 0.356572
vt 0.261778 0.356562
vt 0.388800 0.228697
vt 0.438614 0.327954
vt 0.352953 0.341839
vt 0.333307 0.284592
vt 0.323106 0.294868
vt 0.343535 0.343366
vt 0.295830 0.351099
vt 0.289219 0.329000
vt 0.285593 0.332653
vt 0.292611 0.351621
vt 0.271203 0.355091
vt 0.269562 0.348800
vt 0.268474 0.349896
vt 0.270264 0.355243
vt 0.262982 0.356423
vt 0.262814 0.355597
vt 0.262638 0.355774
vt 0.262839 0.356446
vt 0.261846 0.356607
vt 0.261846 0.356573
vt 0.234251 0.534747
vt 0.135608 0.483726
vt 0.196748 0.422143
vt 0.246291 0.456909
vt 0.248504 0.442600
vt 0.203470 0.415372
vt 0.237519 0.381076
vt 0.255856 0.395068
vt 0.256643 0.389982
vt 0.239817 0.378761
vt 0.255097 0.363371
vt 0.260121 0.367496
vt 0.260357 0.365969
vt 0.255767 0.362696
vt 0.260964 0.357460
vt 0.261586 0.358030
vt 0.261624 0.357783
vt 0.261066 0.357358
vt 0.261775 0.356644
vt 0.261796 0.356671
vt 0.083875 0.385455
vt 0.101917 0.275874
vt 0.179379 0.314991
vt 0.161624 0.372852
vt 0.175917 0.370536
vt 0.187897 0.319292
vt 0.231036 0.341076
vt 0.223394 0.362840
vt 0.228475 0.362017
vt 0.233947 0.342546
vt 0.253306 0.352322
vt 0.250935 0.358376
vt 0.252460 0.358129
vt 0.254155 0.352751
vt 0.260740 0.356077
vt 0.260390 0.356843
vt 0.260637 0.356803
vt 0.260869 0.356142
vt 0.261767 0.356595
vt 0.261747 0.356623
vt 0.422704 0.437865
vt 0.343699 0.515914
vt 0.304023 0.438736
vt 0.352397 0.402361
vt 0.339472 0.395834
vt 0.299660 0.430250
vt 0.277564 0.387270
vt 0.296539 0.374154
vt 0.291944 0.371834
vt 0.276073 0.384369
vt 0.266158 0.365082
vt 0.271634 0.361578
vt 0.270255 0.360881
vt 0.265723 0.364236
vt 0.262350 0.357674
vt 0.263083 0.357260
vt 0.262861 0.357147
vt 0.262284 0.357546
vt 0.261824 0.356652
vt 0.261856 0.356640
vt 0.434220 0.443680
vt 0.348873 0.525980
vt 0.071141 0.387519
vt 0.091813 0.270772
vt 0.232279 0.547496
vt 0.127634 0.491758
vt 0.397889 0.219543
vt 0.449787 0.326143
vt 0.173494 0.184833
vt 0.290915 0.168416
vt 0.918891 0.501473
vt 0.820493 0.507244
vt 0.822635 0.448659
vt 0.920168 0.460093
vt 0.471819 0.322572
vt 0.471819 0.462667
vt 0.294327 0.146359
vt 0.427565 0.189651
vt 0.071890 0.260711
vt 0.154236 0.147372
vt 0.359078 0.545830
vt 0.111909 0.507598
vt 0.029563 0.394258
vt 0.262768 0.780785
vt 0.249267 0.776399
vt 0.246991 0.644450
vt 0.337641 0.673904
vt 0.235926 0.781248
vt 0.227582 0.792733
vt 0.101388 0.754123
vt 0.157412 0.677012
vt 0.228071 0.806920
vt 0.236415 0.818405
vt 0.160699 0.926491
vt 0.104675 0.849380
vt 0.250059 0.822323
vt 0.263560 0.817937
vt 0.342959 0.923348
vt 0.252310 0.952801
vt 0.271503 0.806171
vt 0.271503 0.791975
vt 0.396291 0.749037
vt 0.396291 0.844351
vt 0.225840 0.589121
vt 0.837676 0.394155
vt 0.733684 0.336146
vt 0.719754 0.365258
vt 0.719754 0.610046
vt 0.733684 0.639158
vt 0.709094 0.394862
vt 0.709094 0.580441
vt 0.701745 0.549824
vt 0.697159 0.518898
vt 0.695832 0.487652
vt 0.701745 0.425480
vt 0.697159 0.456406
vt 0.716264 0.754846
vt 0.696964 0.728282
vt 0.695832 0.695468
vt 0.715131 0.668905
vt 0.745990 0.657688
vt 0.777217 0.667834
vt 0.797421 0.693716
vt 0.797421 0.726550
vt 0.779049 0.753763
vt 0.747822 0.763909
vt 0.928243 0.419729
vn 0.9733 0.2110 0.0907
vn -0.8171 0.0687 -0.5724
vn 0.3246 0.0687 0.9434
vn 0.7969 0.0687 0.6002
vn 0.8171 0.0687 -0.5724
vn -0.3246 0.0687 0.9434
vn 0.0000 1.0000 0.0000
vn -0.7341 0.2110 -0.6455
vn 0.3871 0.2110 -0.8976
vn 0.2144 0.2110 0.9537
vn -0.8407 0.2110 0.4987
vn -0.7189 0.5707 0.3968
vn -0.7729 0.4706 0.4257
vn -0.8055 0.4042 0.4334
vn -0.8293 0.2978 0.4729
vn -0.8433 0.2487 0.4765
vn 0.1552 0.5707 0.8064
vn 0.1660 0.4706 0.8666
vn 0.1633 0.4042 0.9000
vn 0.1934 0.2978 0.9348
vn 0.1926 0.2487 0.9493
vn 0.3484 0.5707 -0.7436
vn 0.3750 0.4706 -0.7987
vn 0.3969 0.4042 -0.8241
vn 0.3930 0.2978 -0.8700
vn 0.4021 0.2487 -0.8812
vn -0.5996 0.5707 -0.5611
vn -0.6437 0.4706 -0.6035
vn -0.6611 0.4042 -0.6321
vn -0.7060 0.2978 -0.6426
vn -0.7138 0.2487 -0.6547
vn 0.8149 0.5707 0.1015
vn 0.8755 0.4706 0.1099
vn 0.9064 0.4042 0.1228
vn 0.9488 0.2978 0.1049
vn 0.9623 0.2487 0.1102
vn 0.0276 -0.9849 -0.1709
vn -0.1227 -0.9849 0.1220
vn -0.1540 -0.9849 -0.0790
vn 0.1710 -0.9849 -0.0266
vn 0.0781 -0.9849 0.1544
vn 0.0004 -0.9739 -0.2270
vn -0.1338 -0.9739 0.1834
vn -0.2158 -0.9739 -0.0705
vn 0.2160 -0.9739 -0.0698
vn 0.1331 -0.9739 0.1839
vn 0.0006 -0.9532 -0.3024
vn -0.1782 -0.9532 0.2443
vn -0.2875 -0.9532 -0.0940
vn 0.2878 -0.9532 -0.0929
vn 0.1773 -0.9532 0.2450
vn 0.0007 -0.9320 -0.3624
vn -0.2135 -0.9320 0.2928
vn -0.3444 -0.9320 -0.1126
vn 0.3448 -0.9320 -0.1114
vn 0.2125 -0.9320 0.2936
vn 0.0007 -0.9122 -0.4097
vn -0.2414 -0.9122 0.3310
vn -0.3894 -0.9122 -0.1273
vn 0.3898 -0.9122 -0.1259
vn 0.2402 -0.9122 0.3319
vn 0.3154 -0.8429 0.4358
vn 0.5120 -0.8429 -0.1653
vn -0.5114 -0.8429 -0.1672
vn -0.3170 -0.8429 0.4347
vn 0.0010 -0.8429 -0.5380
vn -0.3154 -0.8429 0.4358
vn -0.2402 -0.9122 0.3319
vn -0.2125 -0.9320 0.2936
vn -0.1773 -0.9532 0.2450
vn -0.1331 -0.9739 0.1839
vn -0.0781 -0.9849 0.1544
vn 0.8433 0.2487 0.4765
vn 0.8293 0.2978 0.4729
vn 0.8055 0.4042 0.4334
vn 0.7729 0.4706 0.4257
vn 0.7189 0.5707 0.3968
vn -0.7969 0.0687 0.6002
vn 0.8407 0.2110 0.4987
vn -0.5120 -0.8429 -0.1653
vn -0.3898 -0.9122 -0.1259
vn -0.3448 -0.9320 -0.1114
vn -0.2878 -0.9532 -0.0929
vn -0.2160 -0.9739 -0.0698
vn -0.1710 -0.9849 -0.0266
vn -0.1926 0.2487 0.9493
vn -0.1934 0.2978 0.9348
vn -0.1633 0.4042 0.9000
vn -0.1660 0.4706 0.8666
vn -0.1552 0.5707 0.8064
vn -0.2144 0.2110 0.9537
vn -0.0010 -0.8429 -0.5380
vn -0.0007 -0.9122 -0.4097
vn -0.0007 -0.9320 -0.3624
vn -0.0006 -0.9532 -0.3024
vn -0.0004 -0.9739 -0.2270
vn -0.0276 -0.9849 -0.1709
vn -0.9623 0.2487 0.1102
vn -0.9488 0.2978 0.1049
vn -0.9064 0.4042 0.1228
vn -0.8755 0.4706 0.1099
vn -0.8149 0.5707 0.1015
vn -0.9733 0.2110 0.0907
vn -0.9975 0.0687 -0.0172
vn 0.5114 -0.8429 -0.1672
vn 0.3894 -0.9122 -0.1273
vn 0.3444 -0.9320 -0.1126
vn 0.2875 -0.9532 -0.0940
vn 0.2158 -0.9739 -0.0705
vn 0.1540 -0.9849 -0.0790
vn -0.4021 0.2487 -0.8812
vn -0.3930 0.2978 -0.8700
vn -0.3969 0.4042 -0.8241
vn -0.3750 0.4706 -0.7987
vn -0.3484 0.5707 -0.7436
vn -0.3871 0.2110 -0.8976
vn 0.2919 0.0687 -0.9540
vn 0.3170 -0.8429 0.4347
vn 0.2414 -0.9122 0.3310
vn 0.2135 -0.9320 0.2928
vn 0.1782 -0.9532 0.2443
vn 0.1338 -0.9739 0.1834
vn 0.1227 -0.9849 0.1220
vn 0.7138 0.2487 -0.6547
vn 0.7060 0.2978 -0.6426
vn 0.6611 0.4042 -0.6321
vn 0.6437 0.4706 -0.6035
vn 0.5996 0.5707 -0.5611
vn 0.7341 0.2110 -0.6455
vn -0.2919 0.0687 -0.9540
vn -0.6262 -0.6727 -0.3941
vn 0.1813 -0.6727 -0.7173
vn 0.7383 -0.6727 -0.0493
vn -0.7383 -0.6727 -0.0493
vn 0.2750 -0.6727 0.6869
vn 0.0000 -1.0000 -0.0000
vn 0.6262 -0.6727 -0.3941
vn -0.1813 -0.6727 -0.7173
vn -0.2750 -0.6727 0.6869
vn -0.5683 -0.6727 0.4738
vn 0.5683 -0.6727 0.4738
vn 0.9832 0.1819 -0.0170
vn 0.7854 0.1819 0.5916
vn 0.8054 0.1819 -0.5642
vn 0.3199 0.1819 0.9298
vn -0.3199 0.1819 0.9298
vn -0.7854 0.1819 0.5916
vn -0.9832 0.1819 -0.0170
vn 0.2877 0.1819 -0.9403
vn -0.8054 0.1819 -0.5642
vn -0.2877 0.1819 -0.9403
vn 0.9975 0.0687 -0.0172
usemtl PolyTree
s off
f 72/1/1 56/2/1 2/3/1 61/4/1
f 139/5/2 170/6/2 168/7/2 140/8/2
f 135/9/3 165/10/3 163/11/3 136/12/3
f 136/12/4 163/11/4 162/13/4 133/14/4
f 131/15/5 134/16/5 161/17/5 164/18/5
f 135/9/6 138/19/6 166/20/6 165/10/6
f 2/3/7 109/21/7 1/22/7 97/23/7 5/24/7 85/25/7 4/26/7 73/27/7 3/28/7 61/4/7
f 108/29/8 57/30/8 5/24/8 97/23/8
f 120/31/9 59/32/9 1/22/9 109/21/9
f 84/33/10 58/34/10 3/28/10 73/27/10
f 96/35/11 60/36/11 4/26/11 85/25/11
f 91/37/12 33/38/12 30/39/12 86/40/12
f 92/41/13 40/42/13 29/43/13 87/44/13
f 93/45/14 45/46/14 28/47/14 88/48/14
f 94/49/15 50/50/15 27/51/15 89/52/15
f 95/53/16 55/54/16 26/55/16 90/56/16
f 79/57/17 31/58/17 15/59/17 74/60/17
f 80/61/18 37/62/18 14/63/18 75/64/18
f 81/65/19 42/66/19 13/67/19 76/68/19
f 82/69/20 47/70/20 12/71/20 77/72/20
f 83/73/21 52/74/21 11/75/21 78/76/21
f 115/77/22 32/78/22 25/79/22 110/80/22
f 116/81/23 39/82/23 24/83/23 111/84/23
f 117/85/24 44/86/24 23/87/24 112/88/24
f 118/89/25 49/90/25 22/91/25 113/92/25
f 119/93/26 54/94/26 21/95/26 114/96/26
f 103/97/27 35/98/27 16/99/27 98/100/27
f 104/101/28 38/102/28 17/103/28 99/104/28
f 105/105/29 43/106/29 18/107/29 100/108/29
f 106/109/30 48/110/30 19/111/30 101/112/30
f 107/113/31 53/114/31 20/115/31 102/116/31
f 67/117/32 34/118/32 6/119/32 62/120/32
f 68/121/33 36/122/33 7/123/33 63/124/33
f 69/125/34 41/126/34 8/127/34 64/128/34
f 70/129/35 46/130/35 9/131/35 65/132/35
f 71/133/36 51/134/36 10/135/36 66/136/36
f 126/137/37 124/138/37 34/118/37 67/117/37
f 129/139/38 125/140/38 35/98/38 103/97/38
f 130/141/39 122/142/39 32/78/39 115/77/39
f 127/143/40 121/144/40 31/58/40 79/57/40
f 128/145/41 123/146/41 33/38/41 91/37/41
f 62/120/42 6/119/42 36/122/42 68/121/42
f 98/100/43 16/99/43 38/102/43 104/101/43
f 110/80/44 25/79/44 39/82/44 116/81/44
f 74/60/45 15/59/45 37/62/45 80/61/45
f 86/40/46 30/39/46 40/42/46 92/41/46
f 63/124/47 7/123/47 41/126/47 69/125/47
f 99/104/48 17/103/48 43/106/48 105/105/48
f 111/84/49 24/83/49 44/86/49 117/85/49
f 75/64/50 14/63/50 42/66/50 81/65/50
f 87/44/51 29/43/51 45/46/51 93/45/51
f 64/128/52 8/127/52 46/130/52 70/129/52
f 100/108/53 18/107/53 48/110/53 106/109/53
f 112/88/54 23/87/54 49/90/54 118/89/54
f 76/68/55 13/67/55 47/70/55 82/69/55
f 88/48/56 28/47/56 50/50/56 94/49/56
f 65/132/57 9/131/57 51/134/57 71/133/57
f 101/112/58 19/111/58 53/114/58 107/113/58
f 113/92/59 22/91/59 54/94/59 119/93/59
f 77/72/60 12/71/60 52/74/60 83/73/60
f 89/52/61 27/51/61 55/54/61 95/53/61
f 90/56/62 26/55/62 60/36/62 96/35/62
f 78/76/63 11/75/63 58/34/63 84/33/63
f 114/96/64 21/95/64 59/32/64 120/31/64
f 102/116/65 20/115/65 57/30/65 108/29/65
f 66/136/66 10/135/66 56/2/66 72/1/66
f 11/75/67 66/136/67 72/1/67 58/34/67
f 12/71/68 65/132/68 71/133/68 52/74/68
f 13/67/69 64/128/69 70/129/69 47/70/69
f 14/63/70 63/124/70 69/125/70 42/66/70
f 15/59/71 62/120/71 68/121/71 37/62/71
f 121/144/72 126/137/72 67/117/72 31/58/72
f 52/74/73 71/133/73 66/136/73 11/75/73
f 47/70/74 70/129/74 65/132/74 12/71/74
f 42/66/75 69/125/75 64/128/75 13/67/75
f 37/62/76 68/121/76 63/124/76 14/63/76
f 31/58/77 67/117/77 62/120/77 15/59/77
f 138/19/78 137/147/78 167/148/78 166/20/78
f 58/34/79 72/1/79 61/4/79 3/28/79
f 26/55/80 78/76/80 84/33/80 60/36/80
f 27/51/81 77/72/81 83/73/81 55/54/81
f 28/47/82 76/68/82 82/69/82 50/50/82
f 29/43/83 75/64/83 81/65/83 45/46/83
f 30/39/84 74/60/84 80/61/84 40/42/84
f 123/146/85 127/143/85 79/57/85 33/38/85
f 55/54/86 83/73/86 78/76/86 26/55/86
f 50/50/87 82/69/87 77/72/87 27/51/87
f 45/46/88 81/65/88 76/68/88 28/47/88
f 40/42/89 80/61/89 75/64/89 29/43/89
f 33/38/90 79/57/90 74/60/90 30/39/90
f 60/36/91 84/33/91 73/27/91 4/26/91
f 20/115/92 90/56/92 96/35/92 57/30/92
f 19/111/93 89/52/93 95/53/93 53/114/93
f 18/107/94 88/48/94 94/49/94 48/110/94
f 17/103/95 87/44/95 93/45/95 43/106/95
f 16/99/96 86/40/96 92/41/96 38/102/96
f 125/140/97 128/145/97 91/37/97 35/98/97
f 53/114/98 95/53/98 90/56/98 20/115/98
f 48/110/99 94/49/99 89/52/99 19/111/99
f 43/106/100 93/45/100 88/48/100 18/107/100
f 38/102/101 92/41/101 87/44/101 17/103/101
f 35/98/102 91/37/102 86/40/102 16/99/102
f 57/30/103 96/35/103 85/25/103 5/24/103
f 137/147/104 140/8/104 168/7/104 167/148/104
f 21/95/105 102/116/105 108/29/105 59/32/105
f 22/91/106 101/112/106 107/113/106 54/94/106
f 23/87/107 100/108/107 106/109/107 49/90/107
f 24/83/108 99/104/108 105/105/108 44/86/108
f 25/79/109 98/100/109 104/101/109 39/82/109
f 122/142/110 129/139/110 103/97/110 32/78/110
f 54/94/111 107/113/111 102/116/111 21/95/111
f 49/90/112 106/109/112 101/112/112 22/91/112
f 44/86/113 105/105/113 100/108/113 23/87/113
f 39/82/114 104/101/114 99/104/114 24/83/114
f 32/78/115 103/97/115 98/100/115 25/79/115
f 59/32/116 108/29/116 97/23/116 1/22/116
f 131/15/117 164/18/117 169/149/117 132/150/117
f 10/135/118 114/96/118 120/31/118 56/2/118
f 9/131/119 113/92/119 119/93/119 51/134/119
f 8/127/120 112/88/120 118/89/120 46/130/120
f 7/123/121 111/84/121 117/85/121 41/126/121
f 6/119/122 110/80/122 116/81/122 36/122/122
f 124/138/123 130/141/123 115/77/123 34/118/123
f 51/134/124 119/93/124 114/96/124 10/135/124
f 46/130/125 118/89/125 113/92/125 9/131/125
f 41/126/126 117/85/126 112/88/126 8/127/126
f 36/122/127 116/81/127 111/84/127 7/123/127
f 34/118/128 115/77/128 110/80/128 6/119/128
f 56/2/129 120/31/129 109/21/129 2/3/129
f 139/5/130 132/150/130 169/149/130 170/6/130
f 126/137/131 121/144/131 141/151/131 146/152/131
f 127/143/132 123/146/132 143/153/132 147/154/132
f 128/145/133 125/140/133 145/155/133 148/156/133
f 124/138/134 126/137/134 146/152/134 144/157/134
f 129/139/135 122/142/135 142/158/135 149/159/135
f 134/160/136 131/161/136 150/162/136 144/163/136
f 132/164/136 139/165/136 149/166/136 142/167/136
f 140/168/136 137/169/136 148/170/136 145/171/136
f 138/172/136 135/173/136 147/174/136 143/175/136
f 136/176/136 133/177/136 146/178/136 141/179/136
f 137/169/136 138/172/136 143/175/136 148/170/136
f 135/173/136 136/176/136 141/179/136 147/174/136
f 131/161/136 132/164/136 142/167/136 150/162/136
f 139/165/136 140/168/136 145/171/136 149/166/136
f 133/177/136 134/160/136 144/163/136 146/178/136
f 123/146/137 128/145/137 148/156/137 143/153/137
f 121/144/138 127/143/138 147/154/138 141/151/138
f 122/142/139 130/141/139 150/180/139 142/158/139
f 130/141/140 124/138/140 144/157/140 150/180/140
f 125/140/141 129/139/141 149/159/141 145/155/141
f 161/17/142 162/181/142 153/182/142 154/183/142
f 162/13/143 163/11/143 156/184/143 153/185/143
f 161/17/144 154/183/144 151/186/144 164/18/144
f 163/11/145 165/10/145 155/187/145 156/184/145
f 166/20/146 158/188/146 155/187/146 165/10/146
f 167/148/147 157/189/147 158/188/147 166/20/147
f 168/7/148 160/190/148 157/189/148 167/148/148
f 169/149/149 164/18/149 151/186/149 152/191/149
f 168/7/150 170/6/150 159/192/150 160/190/150
f 169/149/151 152/191/151 159/192/151 170/6/151
f 151/193/136 154/194/136 153/195/136 156/196/136 155/197/136 158/198/136 157/199/136 160/200/136 159/201/136 152/202/136
f 133/203/152 162/181/152 161/17/152 134/16/152
