{
  "accessors": [
    {
      "bufferView": 2,
      "componentType": 5126,
      "count": 65532,
      "max": [
        0.06528647243976593,
        0.6340658664703369,
        2.1055490970611572
      ],
      "min": [
        -0.11500327289104462,
        -0.6340658664703369,
        0.04596400260925293
      ],
      "type": "VEC3"
    },
    {
      "bufferView": 2,
      "byteOffset": 786384,
      "componentType": 5126,
      "count": 65532,
      "max": [
        1.0,
        1.0,
        1.0
      ],
      "min": [
        -1.0,
        -1.0,
        -1.0
      ],
      "type": "VEC3"
    },
    {
      "bufferView": 1,
      "componentType": 5126,
      "count": 65532,
      "max": [
        1.1649253368377686,
        1.5645214319229126
      ],
      "min": [
        -0.1259799599647522,
        -0.5731393098831177
      ],
      "type": "VEC2"
    },
    {
      "bufferView": 0,
      "componentType": 5125,
      "count": 107907,
      "type": "SCALAR"
    },
    {
      "bufferView": 2,
      "byteOffset": 1572768,
      "componentType": 5126,
      "count": 10572,
      "max": [
        0.11500327289104462,
        0.5168259739875793,
        1.317389726638794
      ],
      "min": [
        -0.11500327289104462,
        -0.5708853006362915,
        0.16055798530578613
      ],
      "type": "VEC3"
    },
    {
      "bufferView": 2,
      "byteOffset": 1699632,
      "componentType": 5126,
      "count": 10572,
      "max": [
        1.0,
        1.0,
        1.0
      ],
      "min": [
        -1.0,
        -1.0,
        -1.0
      ],
      "type": "VEC3"
    },
    {
      "bufferView": 1,
      "byteOffset": 524256,
      "componentType": 5126,
      "count": 10572,
      "max": [
        1.055890679359436,
        1.0829460620880127
      ],
      "min": [
        -0.06999695301055908,
        -0.45420148968696594
      ],
      "type": "VEC2"
    },
    {
      "bufferView": 0,
      "byteOffset": 431628,
      "componentType": 5125,
      "count": 16701,
      "type": "SCALAR"
    },
    {
      "bufferView": 2,
      "byteOffset": 1826496,
      "componentType": 5126,
      "count": 418,
      "max": [
        0.2188895046710968,
        0.041648730635643005,
        2.29707932472229
      ],
      "min": [
        -0.061387475579977036,
        -0.0403711311519146,
        -8.356571197509766e-05
      ],
      "type": "VEC3"
    },
    {
      "bufferView": 2,
      "byteOffset": 1831512,
      "componentType": 5126,
      "count": 418,
      "max": [
        1.0,
        1.0,
        1.0
      ],
      "min": [
        -1.0,
        -1.0,
        -1.0
      ],
      "type": "VEC3"
    },
    {
      "bufferView": 1,
      "byteOffset": 608832,
      "componentType": 5126,
      "count": 418,
      "max": [
        0.6407440304756165,
        1.8790669441223145
      ],
      "min": [
        0.42781999707221985,
        0.10332232713699341
      ],
      "type": "VEC2"
    },
    {
      "bufferView": 0,
      "byteOffset": 498432,
      "componentType": 5125,
      "count": 1164,
      "type": "SCALAR"
    },
    {
      "bufferView": 2,
      "byteOffset": 1836528,
      "componentType": 5126,
      "count": 65533,
      "max": [
        0.04928336292505264,
        1.1619906425476074,
        2.1086266040802
      ],
      "min": [
        -0.05060472711920738,
        -1.1611449718475342,
        0.11376440525054932
      ],
      "type": "VEC3"
    },
    {
      "bufferView": 2,
      "byteOffset": 2622924,
      "componentType": 5126,
      "count": 65533,
      "max": [
        1.0,
        1.0,
        1.0
      ],
      "min": [
        -1.0,
        -1.0,
        -1.0
      ],
      "type": "VEC3"
    },
    {
      "bufferView": 1,
      "byteOffset": 612176,
      "componentType": 5126,
      "count": 65533,
      "max": [
        2.099778175354004,
        2.9542675018310547
      ],
      "min": [
        -1.0994141101837158,
        -1.5469257831573486
      ],
      "type": "VEC2"
    },
    {
      "bufferView": 0,
      "byteOffset": 503088,
      "componentType": 5125,
      "count": 102837,
      "type": "SCALAR"
    },
    {
      "bufferView": 2,
      "byteOffset": 3409320,
      "componentType": 5126,
      "count": 53277,
      "max": [
        0.008743293583393097,
        1.1480350494384766,
        2.0595548152923584
      ],
      "min": [
        -0.00897248089313507,
        -1.1605197191238403,
        -0.003125905990600586
      ],
      "type": "VEC3"
    },
    {
      "bufferView": 2,
      "byteOffset": 4048644,
      "componentType": 5126,
      "count": 53277,
      "max": [
        0.9995173215866089,
        0.9963101744651794,
        0.9995802044868469
      ],
      "min": [
        -0.999276876449585,
        -0.9955694675445557,
        -0.9995250105857849
      ],
      "type": "VEC3"
    },
    {
      "bufferView": 1,
      "byteOffset": 1136440,
      "componentType": 5126,
      "count": 53277,
      "max": [
        2.080559730529785,
        2.88830304145813
      ],
      "min": [
        -1.09855318069458,
        -1.5443365573883057
      ],
      "type": "VEC2"
    },
    {
      "bufferView": 0,
      "byteOffset": 914436,
      "componentType": 5125,
      "count": 74787,
      "type": "SCALAR"
    },
    {
      "bufferView": 2,
      "byteOffset": 4687968,
      "componentType": 5126,
      "count": 418,
      "max": [
        0.2188895046710968,
        0.041648730635643005,
        2.29707932472229
      ],
      "min": [
        -0.061387475579977036,
        -0.0403711311519146,
        -8.356571197509766e-05
      ],
      "type": "VEC3"
    },
    {
      "bufferView": 2,
      "byteOffset": 4692984,
      "componentType": 5126,
      "count": 418,
      "max": [
        1.0,
        1.0,
        1.0
      ],
      "min": [
        -1.0,
        -1.0,
        -1.0
      ],
      "type": "VEC3"
    },
    {
      "bufferView": 1,
      "byteOffset": 1562656,
      "componentType": 5126,
      "count": 418,
      "max": [
        0.6407440304756165,
        1.8790669441223145
      ],
      "min": [
        0.42781999707221985,
        0.10332232713699341
      ],
      "type": "VEC2"
    },
    {
      "bufferView": 0,
      "byteOffset": 1213584,
      "componentType": 5125,
      "count": 1164,
      "type": "SCALAR"
    },
    {
      "bufferView": 2,
      "byteOffset": 4698000,
      "componentType": 5126,
      "count": 418,
      "max": [
        0.2188895046710968,
        0.041648730635643005,
        2.29707932472229
      ],
      "min": [
        -0.061387475579977036,
        -0.0403711311519146,
        -8.356571197509766e-05
      ],
      "type": "VEC3"
    },
    {
      "bufferView": 2,
      "byteOffset": 4703016,
      "componentType": 5126,
      "count": 418,
      "max": [
        1.0,
        1.0,
        1.0
      ],
      "min": [
        -1.0,
        -1.0,
        -1.0
      ],
      "type": "VEC3"
    },
    {
      "bufferView": 1,
      "byteOffset": 1566000,
      "componentType": 5126,
      "count": 418,
      "max": [
        0.6407440304756165,
        1.8790669441223145
      ],
      "min": [
        0.42781999707221985,
        0.10332232713699341
      ],
      "type": "VEC2"
    },
    {
      "bufferView": 0,
      "byteOffset": 1218240,
      "componentType": 5125,
      "count": 1164,
      "type": "SCALAR"
    },
    {
      "bufferView": 2,
      "byteOffset": 4708032,
      "componentType": 5126,
      "count": 65533,
      "max": [
        0.04928336292505264,
        1.1619906425476074,
        2.1086266040802
      ],
      "min": [
        -0.05060472711920738,
        -1.1611449718475342,
        0.11376440525054932
      ],
      "type": "VEC3"
    },
    {
      "bufferView": 2,
      "byteOffset": 5494428,
      "componentType": 5126,
      "count": 65533,
      "max": [
        1.0,
        1.0,
        1.0
      ],
      "min": [
        -1.0,
        -1.0,
        -1.0
      ],
      "type": "VEC3"
    },
    {
      "bufferView": 1,
      "byteOffset": 1569344,
      "componentType": 5126,
      "count": 65533,
      "max": [
        2.099778175354004,
        2.9542675018310547
      ],
      "min": [
        -1.0994141101837158,
        -1.5469257831573486
      ],
      "type": "VEC2"
    },
    {
      "bufferView": 0,
      "byteOffset": 1222896,
      "componentType": 5125,
      "count": 102837,
      "type": "SCALAR"
    },
    {
      "bufferView": 2,
      "byteOffset": 6280824,
      "componentType": 5126,
      "count": 53277,
      "max": [
        0.008743293583393097,
        1.1480350494384766,
        2.0595548152923584
      ],
      "min": [
        -0.00897248089313507,
        -1.1605197191238403,
        -0.003125905990600586
      ],
      "type": "VEC3"
    },
    {
      "bufferView": 2,
      "byteOffset": 6920148,
      "componentType": 5126,
      "count": 53277,
      "max": [
        0.9995173215866089,
        0.9963101744651794,
        0.9995802044868469
      ],
      "min": [
        -0.999276876449585,
        -0.9955694675445557,
        -0.9995250105857849
      ],
      "type": "VEC3"
    },
    {
      "bufferView": 1,
      "byteOffset": 2093608,
      "componentType": 5126,
      "count": 53277,
      "max": [
        2.080559730529785,
        2.88830304145813
      ],
      "min": [
        -1.09855318069458,
        -1.5443365573883057
      ],
      "type": "VEC2"
    },
    {
      "bufferView": 0,
      "byteOffset": 1634244,
      "componentType": 5125,
      "count": 74787,
      "type": "SCALAR"
    },
    {
      "bufferView": 2,
      "byteOffset": 7559472,
      "componentType": 5126,
      "count": 418,
      "max": [
        0.2188895046710968,
        0.041648730635643005,
        2.29707932472229
      ],
      "min": [
        -0.061387475579977036,
        -0.0403711311519146,
        -8.356571197509766e-05
      ],
      "type": "VEC3"
    },
    {
      "bufferView": 2,
      "byteOffset": 7564488,
      "componentType": 5126,
      "count": 418,
      "max": [
        1.0,
        1.0,
        1.0
      ],
      "min": [
        -1.0,
        -1.0,
        -1.0
      ],
      "type": "VEC3"
    },
    {
      "bufferView": 1,
      "byteOffset": 2519824,
      "componentType": 5126,
      "count": 418,
      "max": [
        0.6407440304756165,
        1.8790669441223145
      ],
      "min": [
        0.42781999707221985,
        0.10332232713699341
      ],
      "type": "VEC2"
    },
    {
      "bufferView": 0,
      "byteOffset": 1933392,
      "componentType": 5125,
      "count": 1164,
      "type": "SCALAR"
    }
  ],
  "asset": {
    "extras": {
      "author": "GameDevMoot (https://sketchfab.com/GameDevMoot)",
      "license": "CC-BY-4.0 (http://creativecommons.org/licenses/by/4.0/)",
      "source": "https://sketchfab.com/3d-models/wire-fence-and-door-set-eca6ce077d1e43c9a177f278284d3735",
      "title": "Wire Fence and Door Set"
    },
    "generator": "Sketchfab-16.7.0",
    "version": "2.0"
  },
  "bufferViews": [
    {
      "buffer": 0,
      "byteLength": 1938048,
      "name": "floatBufferViews",
      "target": 34963
    },
    {
      "buffer": 0,
      "byteLength": 2523168,
      "byteOffset": 1938048,
      "byteStride": 8,
      "name": "floatBufferViews",
      "target": 34962
    },
    {
      "buffer": 0,
      "byteLength": 7569504,
      "byteOffset": 4461216,
      "byteStride": 12,
      "name": "floatBufferViews",
      "target": 34962
    }
  ],
  "buffers": [
    {
      "byteLength": 12030720,
      "uri": "scene.bin"
    }
  ],
  "extensionsUsed": [
    "KHR_materials_specular"
  ],
  "materials": [
    {
      "doubleSided": true,
      "extensions": {
        "KHR_materials_specular": {
          "specularColorFactor": [
            1.0,
            1.0,
            1.0
          ],
          "specularFactor": 0.22400068266874718
        }
      },
      "name": "Metal",
      "pbrMetallicRoughness": {
        "baseColorFactor": [
          0.42197790782417816,
          0.42197790782417816,
          0.42197790782417816,
          1.0
        ],
        "metallicFactor": 0.821335836452073,
        "roughnessFactor": 0.38590289037071357
      }
    }
  ],
  "meshes": [
    {
      "name": "Door_MetalWire_Metal_0",
      "primitives": [
        {
          "attributes": {
            "NORMAL": 1,
            "POSITION": 0,
            "TEXCOORD_0": 2
          },
          "indices": 3,
          "material": 0,
          "mode": 4
        }
      ]
    },
    {
      "name": "Door_MetalWire_Metal_0",
      "primitives": [
        {
          "attributes": {
            "NORMAL": 5,
            "POSITION": 4,
            "TEXCOORD_0": 6
          },
          "indices": 7,
          "material": 0,
          "mode": 4
        }
      ]
    },
    {
      "name": "Fence_Metal_Pole_Metal_0",
      "primitives": [
        {
          "attributes": {
            "NORMAL": 9,
            "POSITION": 8,
            "TEXCOORD_0": 10
          },
          "indices": 11,
          "material": 0,
          "mode": 4
        }
      ]
    },
    {
      "name": "Fence_Metal_Wire_Metal_0",
      "primitives": [
        {
          "attributes": {
            "NORMAL": 13,
            "POSITION": 12,
            "TEXCOORD_0": 14
          },
          "indices": 15,
          "material": 0,
          "mode": 4
        }
      ]
    },
    {
      "name": "Fence_Metal_Wire_Metal_0",
      "primitives": [
        {
          "attributes": {
            "NORMAL": 17,
            "POSITION": 16,
            "TEXCOORD_0": 18
          },
          "indices": 19,
          "material": 0,
          "mode": 4
        }
      ]
    },
    {
      "name": "Fence_Metal_Pole.001_Metal_0",
      "primitives": [
        {
          "attributes": {
            "NORMAL": 21,
            "POSITION": 20,
            "TEXCOORD_0": 22
          },
          "indices": 23,
          "material": 0,
          "mode": 4
        }
      ]
    },
    {
      "name": "Fence_Metal_Pole.002_Metal_0",
      "primitives": [
        {
          "attributes": {
            "NORMAL": 25,
            "POSITION": 24,
            "TEXCOORD_0": 26
          },
          "indices": 27,
          "material": 0,
          "mode": 4
        }
      ]
    },
    {
      "name": "Fence_Metal_Wire.001_Metal_0",
      "primitives": [
        {
          "attributes": {
            "NORMAL": 29,
            "POSITION": 28,
            "TEXCOORD_0": 30
          },
          "indices": 31,
          "material": 0,
          "mode": 4
        }
      ]
    },
    {
      "name": "Fence_Metal_Wire.001_Metal_0",
      "primitives": [
        {
          "attributes": {
            "NORMAL": 33,
            "POSITION": 32,
            "TEXCOORD_0": 34
          },
          "indices": 35,
          "material": 0,
          "mode": 4
        }
      ]
    },
    {
      "name": "Fence_Metal_Pole.003_Metal_0",
      "primitives": [
        {
          "attributes": {
            "NORMAL": 37,
            "POSITION": 36,
            "TEXCOORD_0": 38
          },
          "indices": 39,
          "material": 0,
          "mode": 4
        }
      ]
    }
  ],
  "nodes": [
    {
      "children": [
        1
      ],
      "matrix": [
        1.0,
        0.0,
        0.0,
        0.0,
        0.0,
        2.220446049250313e-16,
        -1.0,
        0.0,
        0.0,
        1.0,
        2.220446049250313e-16,
        0.0,
        0.0,
        0.0,
        0.0,
        1.0
      ],
      "name": "Sketchfab_model"
    },
    {
      "children": [
        2
      ],
      "matrix": [
        0.009999999776482582,
        0.0,
        0.0,
        0.0,
        0.0,
        0.0,
        0.009999999776482582,
        0.0,
        0.0,
        -0.009999999776482582,
        0.0,
        0.0,
        0.0,
        0.0,
        0.0,
        1.0
      ],
      "name": "011e1372af144c5289aef42032f7e093.fbx"
    },
    {
      "children": [
        3,
        6,
        8,
        11,
        13,
        15,
        18
      ],
      "name": "RootNode"
    },
    {
      "children": [
        4,
        5
      ],
      "matrix": [
        100.0,
        0.0,
        0.0,
        0.0,
        0.0,
        -2.8212996916465727e-05,
        -99.99999999999602,
        0.0,
        0.0,
        99.99999999999602,
        -2.8212996916465727e-05,
        0.0,
        0.0,
        0.0,
        0.0,
        1.0
      ],
      "name": "Door_MetalWire"
    },
    {
      "mesh": 0,
      "name": "Door_MetalWire_Metal_0"
    },
    {
      "mesh": 1,
      "name": "Door_MetalWire_Metal_0"
    },
    {
      "children": [
        7
      ],
      "matrix": [
        100.0,
        0.0,
        0.0,
        0.0,
        0.0,
        -2.8212996916465727e-05,
        -99.99999999999602,
        0.0,
        0.0,
        99.99999999999602,
        -2.8212996916465727e-05,
        0.0,
        0.0,
        0.0,
        -65.05728149414063,
        1.0
      ],
      "name": "Fence_Metal_Pole"
    },
    {
      "mesh": 2,
      "name": "Fence_Metal_Pole_Metal_0"
    },
    {
      "children": [
        9,
        10
      ],
      "matrix": [
        100.0,
        0.0,
        0.0,
        0.0,
        0.0,
        -2.8212996916465727e-05,
        -99.99999999999602,
        0.0,
        0.0,
        99.99999999999602,
        -2.8212996916465727e-05,
        0.0,
        0.0,
        0.0,
        -180.20066833496094,
        1.0
      ],
      "name": "Fence_Metal_Wire"
    },
    {
      "mesh": 3,
      "name": "Fence_Metal_Wire_Metal_0"
    },
    {
      "mesh": 4,
      "name": "Fence_Metal_Wire_Metal_0"
    },
    {
      "children": [
        12
      ],
      "matrix": [
        100.0,
        0.0,
        0.0,
        0.0,
        0.0,
        -2.8212996916465727e-05,
        -99.99999999999602,
        0.0,
        0.0,
        99.99999999999602,
        -2.8212996916465727e-05,
        0.0,
        0.0,
        0.0,
        -296.4581604003906,
        1.0
      ],
      "name": "Fence_Metal_Pole.001"
    },
    {
      "mesh": 5,
      "name": "Fence_Metal_Pole.001_Metal_0"
    },
    {
      "children": [
        14
      ],
      "matrix": [
        100.0,
        0.0,
        0.0,
        0.0,
        0.0,
        -2.8212996916465727e-05,
        -99.99999999999602,
        0.0,
        0.0,
        99.99999999999602,
        -2.8212996916465727e-05,
        0.0,
        0.0,
        0.0,
        297.3731994628906,
        1.0
      ],
      "name": "Fence_Metal_Pole.002"
    },
    {
      "mesh": 6,
      "name": "Fence_Metal_Pole.002_Metal_0"
    },
    {
      "children": [
        16,
        17
      ],
      "matrix": [
        100.0,
        0.0,
        0.0,
        0.0,
        0.0,
        -2.8212996916465727e-05,
        -99.99999999999602,
        0.0,
        0.0,
        99.99999999999602,
        -2.8212996916465727e-05,
        0.0,
        0.0,
        0.0,
        182.22979736328125,
        1.0
      ],
      "name": "Fence_Metal_Wire.001"
    },
    {
      "mesh": 7,
      "name": "Fence_Metal_Wire.001_Metal_0"
    },
    {
      "mesh": 8,
      "name": "Fence_Metal_Wire.001_Metal_0"
    },
    {
      "children": [
        19
      ],
      "matrix": [
        100.0,
        0.0,
        0.0,
        0.0,
        0.0,
        -2.8212996916465727e-05,
        -99.99999999999602,
        0.0,
        0.0,
        99.99999999999602,
        -2.8212996916465727e-05,
        0.0,
        0.0,
        0.0,
        65.9723129272461,
        1.0
      ],
      "name": "Fence_Metal_Pole.003"
    },
    {
      "mesh": 9,
      "name": "Fence_Metal_Pole.003_Metal_0"
    }
  ],
  "scene": 0,
  "scenes": [
    {
      "name": "Sketchfab_Scene",
      "nodes": [
        0
      ]
    }
  ]
}
